<svg data-v-fde0c5aa="" xmlns="http://www.w3.org/2000/svg" viewBox="0 0 300 300" class="iconAbove"><!----><defs data-v-fde0c5aa=""><!----></defs><rect data-v-fde0c5aa="" fill="transparent" x="0" y="0" width="300px" height="300px" class="logo-background-square"></rect><defs data-v-fde0c5aa=""><!----></defs><g data-v-fde0c5aa="" id="3b943654-f191-4628-8c06-517204d6da7c" fill="#000000" transform="matrix(4.04480405938869,0,0,4.04480405938869,19.595519588033902,186.50466759178863)"><path d="M3.43 6.22L6.05 6.22L4.72 2.37L3.43 6.22ZM9.35 10.03L10.13 10.20L10.13 10.68L8.26 10.64L6.40 10.68L6.40 10.20L7.28 10.04L6.36 7.09L3.13 7.09L2.28 10.04L3.11 10.20L3.11 10.68L1.60 10.64L0.10 10.68L0.10 10.20L0.82 10.07Q1.18 9.22 1.68 7.96L1.68 7.96Q2.14 6.80 2.50 5.84L2.50 5.84Q3.22 3.93 4.02 1.62L4.02 1.62L4.80 1.43L5.58 1.17L6.15 1.36Q6.53 2.50 6.87 3.51L6.87 3.51Q7.29 4.73 7.65 5.70L7.65 5.70Q8.38 7.70 9.35 10.03L9.35 10.03ZM13.09 10.56L13.09 10.56L13.09 11.46Q13.09 11.95 13.11 12.28Q13.12 12.62 13.17 12.92L13.17 12.92L13.25 13.57L14.13 13.73L14.13 14.20L12.28 14.17L10.57 14.20L10.57 13.73L11.32 13.57L11.39 12.92Q11.41 12.62 11.44 12.23Q11.46 11.84 11.46 11.46L11.46 11.46L11.46 6.40L11.46 6.22L11.46 6.06Q11.46 5.81 11.45 5.55Q11.44 5.28 11.40 5.03L11.40 5.03L11.33 4.19L10.45 4.02L10.45 3.54Q10.75 3.54 11.00 3.50L11.00 3.50Q11.38 3.43 11.56 3.41L11.56 3.41Q11.95 3.35 12.14 3.31Q12.33 3.26 12.68 3.17L12.68 3.17L13.17 3.17L13.11 4.25Q13.59 3.69 14.14 3.47L14.14 3.47Q14.42 3.35 14.71 3.28Q15.00 3.22 15.27 3.22L15.27 3.22Q16.60 3.22 17.41 4.20Q18.22 5.18 18.22 6.77L18.22 6.77Q18.22 8.44 17.12 9.64L17.12 9.64Q16.57 10.23 15.92 10.54Q15.26 10.84 14.49 10.84L14.49 10.84Q14.13 10.84 13.79 10.78Q13.45 10.72 13.09 10.56ZM13.08 6.42L13.08 9.54L13.46 9.76Q13.67 9.85 13.95 9.91Q14.24 9.97 14.61 9.97L14.61 9.97Q15.38 9.97 15.93 9.16L15.93 9.16Q16.47 8.29 16.47 7.15L16.47 7.15Q16.47 6.49 16.34 6.03Q16.22 5.56 15.93 5.16L15.93 5.16Q15.41 4.40 14.50 4.40L14.50 4.40Q13.81 4.40 13.45 4.91Q13.08 5.43 13.08 6.42L13.08 6.42ZM20.61 7.08L20.61 7.94Q20.61 8.42 20.62 8.75Q20.64 9.08 20.70 9.54Q20.76 10.00 20.78 10.04L20.78 10.04L21.67 10.20L21.67 10.68L19.80 10.64L18.09 10.68L18.09 10.20L18.84 10.04L18.91 9.39Q18.93 9.09 18.96 8.70Q18.98 8.32 18.98 7.94L18.98 7.94L18.98 6.40L18.98 6.22L18.98 6.06Q18.98 5.81 18.97 5.55Q18.96 5.28 18.92 5.03L18.92 5.03L18.85 4.19L17.97 4.02L17.97 3.54Q18.25 3.54 18.49 3.50L18.49 3.50Q18.84 3.43 19.00 3.41L19.00 3.41Q19.35 3.35 19.54 3.31Q19.73 3.26 20.05 3.17L20.05 3.17L20.47 3.17L20.42 5.24Q20.76 4.24 21.46 3.72L21.46 3.72Q21.79 3.48 22.13 3.35Q22.47 3.22 22.83 3.22L22.83 3.22Q22.97 3.22 23.11 3.24Q23.25 3.26 23.40 3.31Q23.56 3.35 23.65 3.43L23.65 3.43L23.23 4.48L23.01 5.27Q22.53 5.16 22.52 5.05L22.52 5.05Q22.52 4.91 22.54 4.84L22.54 4.84Q22.54 4.55 22.45 4.52Q22.36 4.48 22.21 4.48L22.21 4.48Q21.57 4.48 21.09 5.23Q20.61 5.98 20.61 7.08L20.61 7.08ZM29.98 8.42L30.50 8.92Q30.25 9.28 29.92 9.60Q29.58 9.93 29.11 10.23L29.11 10.23Q28.17 10.84 27.11 10.84L27.11 10.84Q25.39 10.84 24.41 9.85Q23.44 8.86 23.44 7.11L23.44 7.11Q23.44 5.50 24.59 4.36Q25.75 3.22 27.38 3.22L27.38 3.22Q28.73 3.22 29.55 4.02Q30.38 4.83 30.38 6.08L30.38 6.08L30.38 6.49L25.27 6.49Q25.27 8.03 25.83 8.84Q26.38 9.65 27.57 9.65L27.57 9.65Q28.39 9.65 29.03 9.21Q29.67 8.77 29.98 8.42L29.98 8.42ZM25.32 5.79L25.32 5.79L28.62 5.64L28.62 5.48Q28.62 4.77 28.29 4.38Q27.95 4.00 27.27 4.00L27.27 4.00Q26.38 4.00 25.81 4.67L25.81 4.67Q25.47 5.10 25.32 5.79ZM37.51 5.43L37.51 7.94Q37.51 8.35 37.52 8.72Q37.53 9.08 37.58 9.53Q37.63 9.98 37.65 10.04L37.65 10.04L38.40 10.20L38.40 10.68L36.70 10.64L35.89 10.68L35.89 10.20L35.88 10.04L35.88 6.43Q35.88 5.40 35.57 4.90L35.57 4.90Q35.29 4.40 34.54 4.40L34.54 4.40Q33.79 4.40 33.33 5.04L33.33 5.04Q32.91 5.67 32.91 6.73L32.91 6.73L32.91 7.94Q32.91 8.42 32.92 8.75Q32.93 9.08 32.98 9.39L32.98 9.39L33.05 10.04L33.80 10.20L33.80 10.68L32.10 10.64L30.38 10.68L30.38 10.20L31.13 10.04L31.21 9.39Q31.23 9.09 31.25 8.70Q31.28 8.32 31.28 7.94L31.28 7.94L31.28 6.40L31.28 6.22L31.28 6.06Q31.28 5.81 31.26 5.55Q31.25 5.28 31.22 5.03L31.22 5.03L31.15 4.19L30.26 4.02L30.26 3.54Q30.57 3.54 30.82 3.50L30.82 3.50Q31.19 3.43 31.37 3.41L31.37 3.41Q31.87 3.32 31.99 3.30Q32.11 3.28 32.48 3.17L32.48 3.17L32.97 3.17L32.91 4.48Q33.45 3.84 34.06 3.53Q34.68 3.22 35.39 3.22L35.39 3.22Q36.35 3.22 36.93 3.82Q37.51 4.43 37.51 5.43L37.51 5.43ZM43.54 10.68L43.54 9.48Q43.07 10.20 42.51 10.52Q41.94 10.84 41.32 10.84L41.32 10.84Q39.95 10.84 39.11 9.88Q38.27 8.92 38.27 7.39L38.27 7.39Q38.27 5.54 39.38 4.38Q40.49 3.22 42.25 3.22L42.25 3.22Q42.61 3.22 42.88 3.28L42.88 3.28L43.42 3.35L43.42 3.42L43.38 1.99Q43.38 1.68 43.36 1.52Q43.33 1.36 43.29 1.22L43.29 1.22L42.41 1.05L42.41 0.56L44.57 0.20L45.18 0.20L45.09 1.25L45.05 2.12L45.05 7.98Q45.05 8.38 45.07 8.75Q45.09 9.11 45.10 9.33L45.10 9.33Q45.10 9.78 45.21 10.04L45.21 10.04Q45.31 10.04 45.37 10.06Q45.42 10.07 45.57 10.10L45.57 10.10L45.96 10.20L45.96 10.68L44.75 10.64L43.54 10.68ZM43.44 6.84L43.44 6.84L43.44 4.48Q43.32 4.40 42.99 4.28Q42.67 4.17 42.11 4.17L42.11 4.17Q41.06 4.17 40.54 4.85Q40.02 5.53 40.02 6.85L40.02 6.85Q40.02 8.15 40.49 8.90Q40.95 9.65 41.86 9.65L41.86 9.65Q42.68 9.65 43.06 8.92Q43.44 8.19 43.44 6.84ZM52.25 8.42L52.77 8.92Q52.52 9.28 52.19 9.60Q51.85 9.93 51.38 10.23L51.38 10.23Q50.44 10.84 49.38 10.84L49.38 10.84Q47.66 10.84 46.68 9.85Q45.71 8.86 45.71 7.11L45.71 7.11Q45.71 5.50 46.86 4.36Q48.02 3.22 49.65 3.22L49.65 3.22Q51.00 3.22 51.82 4.02Q52.65 4.83 52.65 6.08L52.65 6.08L52.65 6.49L47.54 6.49Q47.54 8.03 48.09 8.84Q48.65 9.65 49.84 9.65L49.84 9.65Q50.66 9.65 51.30 9.21Q51.94 8.77 52.25 8.42L52.25 8.42ZM47.59 5.79L47.59 5.79L50.89 5.64L50.89 5.48Q50.89 4.77 50.55 4.38Q50.22 4.00 49.54 4.00L49.54 4.00Q48.65 4.00 48.08 4.67L48.08 4.67Q47.74 5.10 47.59 5.79ZM57.74 6.84L60.61 6.84L60.61 4.00L61.53 4.00L61.53 6.84L64.38 6.84L64.38 7.76L61.53 7.76L61.53 10.63L60.61 10.63L60.61 7.76L57.74 7.76L57.74 6.84Z"></path></g><defs data-v-fde0c5aa=""><linearGradient data-v-fde0c5aa="" gradientTransform="rotate(25)" id="88e693d5-a890-4c4b-80b7-1feccb2926ac" x1="0%" y1="0%" x2="100%" y2="0%"><stop data-v-fde0c5aa="" offset="0%" stop-color="#49247E" stop-opacity="1"></stop><stop data-v-fde0c5aa="" offset="100%" stop-color="#AA49C7" stop-opacity="1"></stop></linearGradient></defs><g data-v-fde0c5aa="" id="6e0edc06-f802-4961-805f-29c1864d08eb" stroke="none" fill="url(#88e693d5-a890-4c4b-80b7-1feccb2926ac)" transform="matrix(2.1992884722731993,0,0,2.1992884722731993,44.432822265282496,7.120495551496575)"><path d="M46 50.252a7.95 7.95 0 01-1.948-.244L16 42.996v21.252c0 .532.212 1.04.584 1.416 5.96 5.96 19.104 8.084 29.416 8.084 10.313 0 23.452-2.124 29.416-8.084.376-.376.584-.884.584-1.412v-20.62l-28.228 6.416a7.822 7.822 0 01-1.772.204z"></path><path d="M90.54 28.288l-44-6a4.037 4.037 0 00-1.132.008l-40 6a4.007 4.007 0 00-3.404 3.764 4.006 4.006 0 003.028 4.072l40 10c.316.084.644.12.968.12.296 0 .592-.032.888-.096l34.76-7.904H84v24c0 1.104.9 2 2 2s2-.896 2-2V36.808l2.893-.656a3.988 3.988 0 003.104-4.08 4.003 4.003 0 00-3.457-3.784z"></path></g><!----></svg>